<?xml version="1.0" encoding="utf-8"?>
<!-- Generator: Adobe Illustrator 22.0.0, SVG Export Plug-In . SVG Version: 6.00 Build 0)  -->
<svg version="1.1" id="Layer_1" xmlns="http://www.w3.org/2000/svg" xmlns:xlink="http://www.w3.org/1999/xlink" x="0px" y="0px"
	 viewBox="0 0 200 200" style="enable-background:new 0 0 200 200;" xml:space="preserve">
<style type="text/css">
	.st0{display:none;fill:#27262B;}
	.st1{fill:none;stroke:#FFFFFF;stroke-width:2.5298;stroke-miterlimit:10;}
	.st2{fill:none;stroke:#F1F2F2;stroke-width:1.0781;stroke-miterlimit:10;}
	.st3{fill:none;stroke:#FFFFFF;stroke-width:0.7187;stroke-miterlimit:10;}
	.st4{fill:none;stroke:#FFFFFF;stroke-width:1.0781;stroke-miterlimit:10;}
	.st5{fill:none;stroke:#58595B;stroke-width:0.952;stroke-miterlimit:10;}
	.st6{fill:#E6E7E8;}
	.st7{fill:none;stroke:#FFFFFF;stroke-width:0.357;stroke-miterlimit:10;}
	.st8{fill:none;stroke:#FFFFFF;stroke-width:0.952;stroke-miterlimit:10;}
	.st9{fill:#FFFFFF;}
	.st10{font-family:'ArialMT';}
	.st11{font-size:8.4415px;}
	.st12{fill:none;stroke:#FFFFFF;stroke-width:0.3979;stroke-miterlimit:10;}
	.st13{fill:none;stroke:#FFFFFF;stroke-width:0.3594;stroke-miterlimit:10;}
	.st14{stroke:#FFFFFF;stroke-width:1.0781;stroke-miterlimit:10;}
</style>
<rect y="-0.5" class="st0" width="200" height="200"/>
<path class="st1" d="M175.4,192.6H26.1c-9.8,0-17.7-7.9-17.7-17.7V25.7C8.5,15.9,16.4,8,26.1,8h149.2c9.8,0,17.7,7.9,17.7,17.7
	v149.2C193,184.7,185.1,192.6,175.4,192.6z"/>
<g>
	<path class="st2" d="M147,33.1c0.3,0,2.7-0.3,4.2,1.3c1.6,1.5,1.5,3.5,1.5,3.8c0,10.9-0.3,22.2-0.3,33.1l7.6,0.1
		c0.7,0,1.4,0.1,2.1,0.4c2.1,0.9,3.6,3,3.6,5.3c0,2-1,3.7-2.6,4.8c-0.9,0.6-2.1,0.9-3.2,0.9l-7.4-0.1l0.3,82.2
		c0,3.5-3.1,6.4-6.7,5.9c-0.2,0-0.3,0-0.5-0.1c-3.1-0.6-4.9-3.3-4.7-6.4c0-2.2,0-4.3,0.1-6.5L61,157.7l0,5.5c0,1.6-0.6,3.3-1.7,4.5
		c-0.1,0.1-0.2,0.2-0.2,0.3c-1.6,1.5-3.4,1.8-3.6,1.8c-0.3,0-0.5,0-0.8,0c-1.4,0-3.2-0.5-4.2-1.4c-1.1-1-1.7-2.4-1.7-3.8V81.2
		l-8-0.1c-0.4,0-0.9-0.1-1.3-0.3c-2.1-1-3.5-3.1-3.4-5.4c0.1-2,1.4-3.9,3.3-4.7c0.4-0.2,0.9-0.3,1.3-0.3l8.1,0.1l-0.1-33
		c0-0.7,0.1-1.6,0.4-2.2c0.3-0.6,0.8-1.1,1.5-1.7c1.4-1.1,2.9-1.2,3.4-1.2C84.9,32.6,116.2,32.8,147,33.1z"/>
	<ellipse transform="matrix(0.185 -0.9827 0.9827 0.185 54.7562 220.1974)" class="st3" cx="160.1" cy="77.1" rx="3.4" ry="3.5"/>
	<ellipse transform="matrix(0.185 -0.9827 0.9827 0.185 -40.0455 103.2091)" class="st3" cx="42.2" cy="75.7" rx="3.4" ry="3.5"/>
	<ellipse transform="matrix(0.185 -0.9827 0.9827 0.185 7.7705 85.2856)" class="st4" cx="55.3" cy="38" rx="3.4" ry="3.5"/>
	<ellipse transform="matrix(0.185 -0.9827 0.9827 0.185 81.4895 175.2454)" class="st4" cx="146.4" cy="38.5" rx="3.4" ry="3.5"/>
	<ellipse transform="matrix(0.185 -0.9827 0.9827 0.185 -103.7969 178.4737)" class="st4" cx="55.7" cy="151.8" rx="3.4" ry="3.5"/>
	<ellipse transform="matrix(0.185 -0.9827 0.9827 0.185 -29.969 268.8429)" class="st4" cx="147.1" cy="152.5" rx="3.4" ry="3.5"/>
	<ellipse transform="matrix(0.185 -0.9827 0.9827 0.185 -116.4772 187.8822)" class="st3" cx="55" cy="164.2" rx="3.4" ry="3.5"/>
	<ellipse transform="matrix(0.185 -0.9827 0.9827 0.185 -42.0635 278.9576)" class="st3" cx="147.2" cy="164.8" rx="3.4" ry="3.5"/>
	<path class="st5" d="M56.4,96.3L56.4,96.3c-0.4,0-0.8-0.4-0.8-0.8l0-3.2c0-0.4,0.4-0.8,0.8-0.8h0c0.4,0,0.8,0.4,0.8,0.8l0,3.2
		C57.2,95.9,56.8,96.3,56.4,96.3z"/>
	<ellipse transform="matrix(0.185 -0.9827 0.9827 0.185 -38.7898 125.7956)" class="st5" cx="56.4" cy="86.3" rx="2.2" ry="2.2"/>
	<polygon class="st6" points="140.1,34.7 77.7,34.2 77.6,32.3 140,32.7 	"/>
	<path class="st7" d="M48.3,85.9l-2.4,0c-0.5,0-0.8,0.4-0.8,0.8c0,0.5,0.4,0.8,0.8,0.9c0.4,0,0.7,0,1.1,0l0,3l-1.4,0
		c-0.4,0.1-0.6,0.5-0.6,0.9c0,0.4,0.3,0.7,0.6,0.8c0.7,0,1.5,0,2.7,0L48.3,85.9z"/>
	<ellipse transform="matrix(0.185 -0.9827 0.9827 0.185 -32.7115 211.079)" class="st8" cx="110.9" cy="125.3" rx="6.7" ry="6.9"/>
	<ellipse transform="matrix(0.185 -0.9827 0.9827 0.185 -6.8747 222.9966)" class="st8" cx="131" cy="115.6" rx="6.7" ry="6.9"/>
	<path class="st8" d="M104.6,146.6l-7.9-0.1c-2,0-3.6-1.6-3.6-3.5l0-0.2c0-1.9,1.6-3.5,3.6-3.5l7.9,0.1c2,0,3.6,1.6,3.6,3.5l0,0.2
		C108.1,145.1,106.5,146.6,104.6,146.6z"/>
	<path class="st8" d="M71.7,109.9l9.7,0.1c0.2,0,0.4,0.2,0.4,0.4l0,10.3c0,0.2,0.2,0.4,0.4,0.4l10.5,0.1c0.2,0,0.4,0.2,0.4,0.4l0,9
		c0,0.2-0.2,0.4-0.4,0.4l-10.5-0.1c-0.2,0-0.4,0.2-0.4,0.4l0,10.7c0,0.2-0.2,0.4-0.4,0.4l-9.7-0.1c-0.2,0-0.4-0.2-0.4-0.4l0-10.7
		c0-0.2-0.2-0.4-0.4-0.4l-10.5-0.1c-0.2,0-0.4-0.2-0.4-0.4l0-9c0-0.2,0.2-0.4,0.4-0.4l10.5,0.1c0.2,0,0.4-0.2,0.4-0.4l-0.1-10.2
		C71.2,110.1,71.4,109.9,71.7,109.9z"/>
	<text transform="matrix(1.0302 7.579725e-03 4.142570e-03 1 128.1521 118.294)" class="st9 st10 st11">A</text>
	<text transform="matrix(1.0302 7.579725e-03 4.142570e-03 1 108.1014 128.3068)" class="st9 st10 st11">B</text>
	<polygon class="st12" points="76.5,113.4 74.2,116.9 78.8,116.9 	"/>
	<polygon class="st12" points="76.6,139.2 78.9,135.7 74.3,135.7 	"/>
	<polygon class="st12" points="63.3,125.8 66.9,128 66.8,123.6 	"/>
	<polygon class="st12" points="89.8,125.9 86.2,123.7 86.3,128.1 	"/>
	<path class="st13" d="M76.6,129L76.6,129c-1.6,0-2.9-1.3-2.9-2.8v0c0-1.5,1.3-2.8,2.9-2.8l0,0c1.6,0,2.9,1.3,2.9,2.8v0
		C79.5,127.7,78.2,129,76.6,129z"/>
	<rect x="66.2" y="49.1" class="st14" width="69.7" height="54"/>
</g>
</svg>
