<?xml version="1.0" encoding="utf-8"?>
<!-- Generator: Adobe Illustrator 22.0.0, SVG Export Plug-In . SVG Version: 6.00 Build 0)  -->
<svg version="1.1" id="Layer_1" xmlns="http://www.w3.org/2000/svg" xmlns:xlink="http://www.w3.org/1999/xlink" x="0px" y="0px"
	 viewBox="0 0 200 200" style="enable-background:new 0 0 200 200;" xml:space="preserve">
<style type="text/css">
	.st0{display:none;fill:#27262B;}
	.st1{fill:none;stroke:#FFFFFF;stroke-width:2.5298;stroke-miterlimit:10;}
	.st2{fill:none;stroke:#FFFFFF;stroke-width:1.9393;stroke-miterlimit:10;}
	.st3{fill:#FFFFFF;}
	.st4{font-family:'ArialMT';}
	.st5{font-size:17.1967px;}
	.st6{fill:none;stroke:#FFFFFF;stroke-width:0.8106;stroke-miterlimit:10;}
	.st7{fill:none;stroke:#FFFFFF;stroke-width:0.7321;stroke-miterlimit:10;}
</style>
<rect y="0.5" class="st0" width="200" height="200"/>
<path class="st1" d="M175.4,193.6H26.1c-9.8,0-17.7-7.9-17.7-17.7V26.7C8.5,16.9,16.4,9,26.1,9h149.2c9.8,0,17.7,7.9,17.7,17.7
	v149.2C193,185.7,185.1,193.6,175.4,193.6z"/>
<g>
	<g>
		<ellipse transform="matrix(0.185 -0.9827 0.9827 0.185 2.9166 201.9092)" class="st2" cx="123.2" cy="99.2" rx="13.7" ry="14.1"/>
		
			<ellipse transform="matrix(0.185 -0.9827 0.9827 0.185 55.5506 226.1874)" class="st2" cx="164.1" cy="79.6" rx="13.7" ry="14.1"/>
		<path class="st2" d="M110.3,142.7l-16.1-0.1c-4,0-7.3-3.2-7.3-7.1l0-0.5c0-3.9,3.3-7.1,7.3-7l16.1,0.1c4,0,7.3,3.2,7.3,7.1l0,0.5
			C117.6,139.5,114.3,142.7,110.3,142.7z"/>
		<path class="st2" d="M43.2,67.8L63,68c0.5,0,0.9,0.4,0.9,0.8l0.1,20.9c0,0.5,0.4,0.8,0.9,0.8l21.4,0.2c0.5,0,0.8,0.4,0.8,0.8
			l0.1,18.3c0,0.4-0.4,0.8-0.8,0.8l-21.4-0.2c-0.5,0-0.8,0.4-0.8,0.8l0.1,21.7c0,0.5-0.4,0.8-0.9,0.8l-19.8-0.1
			c-0.5,0-0.9-0.4-0.9-0.8L42.5,111c0-0.5-0.4-0.8-0.8-0.8L20.2,110c-0.4,0-0.8-0.4-0.8-0.8l-0.1-18.3c0-0.4,0.4-0.8,0.8-0.8
			l21.5,0.2c0.5,0,0.9-0.4,0.9-0.8l-0.1-20.7C42.3,68.2,42.7,67.8,43.2,67.8z"/>
		<text transform="matrix(1.0302 7.579724e-03 4.142570e-03 1 158.3239 85.0025)" class="st3 st4 st5">A</text>
		<text transform="matrix(1.0302 7.579724e-03 4.142570e-03 1 117.4771 105.3999)" class="st3 st4 st5">B</text>
	</g>
	<polygon class="st6" points="53.1,74.5 48.5,81.6 57.8,81.7 	"/>
	<polygon class="st6" points="53.3,127.1 57.9,120 48.6,119.9 	"/>
	<polygon class="st6" points="26.1,99.7 33.5,104.3 33.4,95.3 	"/>
	<polygon class="st6" points="80.3,100.1 72.9,95.6 73,104.6 	"/>
	<path class="st7" d="M53.2,106.3L53.2,106.3c-3.2,0-5.9-2.6-5.9-5.8v0c0-3.2,2.6-5.7,5.9-5.7h0c3.2,0,5.9,2.6,5.9,5.8v0
		C59.1,103.7,56.5,106.3,53.2,106.3z"/>
</g>
</svg>
