<?xml version="1.0" encoding="utf-8"?>
<!-- Generator: Adobe Illustrator 22.0.0, SVG Export Plug-In . SVG Version: 6.00 Build 0)  -->
<svg version="1.1" id="Layer_1" xmlns="http://www.w3.org/2000/svg" xmlns:xlink="http://www.w3.org/1999/xlink" x="0px" y="0px"
	 viewBox="0 0 200 200" style="enable-background:new 0 0 200 200;" xml:space="preserve">
<style type="text/css">
	.st0{fill:#27262B;}
	.st1{fill:none;stroke:#FFFFFF;stroke-width:2.5298;stroke-miterlimit:10;}
	.st2{fill:#FFFFFF;stroke:#FFFFFF;stroke-width:5.2356;stroke-miterlimit:10;}
	.st3{fill:#FFFFFF;stroke:#FFFFFF;stroke-width:8;stroke-miterlimit:10;}
</style>
<rect y="0.5" class="st0" width="200" height="200"/>
<path class="st1" d="M175.4,193.6H26.1c-9.8,0-17.7-7.9-17.7-17.7V26.7C8.5,16.9,16.4,9,26.1,9h149.2c9.8,0,17.7,7.9,17.7,17.7
	v149.2C193,185.7,185.1,193.6,175.4,193.6z"/>
<path class="st2" d="M176.7,154.5H88.1c-1.6,0-2.9-1.3-2.9-2.9v-4.7c0-1.6,1.3-2.9,2.9-2.9h88.6c1.6,0,2.9,1.3,2.9,2.9v4.7
	C179.6,153.2,178.3,154.5,176.7,154.5z"/>
<g>
	<path class="st3" d="M87.1,105.6L33.5,52c-1.1-1.1-1.1-2.9,0-4l3.5-3.5c1.1-1.1,2.9-1.1,4,0l53.6,53.6c1.1,1.1,1.1,2.9,0,4
		l-3.5,3.5C90.1,106.8,88.3,106.8,87.1,105.6z"/>
	<path class="st3" d="M94.7,102.3l-53.6,53.6c-1.1,1.1-2.9,1.1-4,0l-3.5-3.5c-1.1-1.1-1.1-2.9,0-4l53.6-53.6c1.1-1.1,2.9-1.1,4,0
		l3.5,3.5C95.8,99.3,95.8,101.2,94.7,102.3z"/>
</g>
</svg>
